<?xml version="1.0" encoding="UTF-8" standalone="no"?>
<!DOCTYPE svg PUBLIC "-//W3C//DTD SVG 1.1//EN" "http://www.w3.org/Graphics/SVG/1.1/DTD/svg11.dtd">
<!-- Generated by graphviz version 2.40.1 (20161225.0304) -->
<!--
Generated with Graphviz (http://viz-js.com/)
digraph "Bash source order"{

  rankdir=TD

  graph [fontname="helvetica"]
  edge [fontname="helvetica"]
  node [
    fontname="helvetica",
    shape="box",
    style="rounded,filled",
    colorscheme="pastel13",
    fillcolor="3"
  ]

  read_profile [label="Read profile\nconfiguration" fillcolor="2"]
  read_rc [label="Read bashrc" fillcolor="2"]

  etc_profile [label="/etc/profile"]
  bash_profile [label="~/.bash_profile"]
  bashrc [label="~/.bashrc"]
  etc_bashrc [label="/etc/bashrc"]
  bashrc2 [label="~/.bashrc"]
  etc_bashrc2 [label="/etc/bashrc"]
  etc_profile_sh [label="/etc/profile.d/*.sh"]
  
  read_rc -> bashrc2 -> etc_bashrc2
  read_profile -> etc_profile -> etc_profile_sh
  read_profile -> bash_profile -> bashrc -> etc_bashrc
}
-->
<!-- Title: Bash profile Pages: 1 -->
<svg width="368pt" height="266pt" viewBox="0.00 0.00 367.80 265.60" xmlns="http://www.w3.org/2000/svg" xmlns:xlink="http://www.w3.org/1999/xlink">
<g id="graph0" class="graph" transform="scale(1 1) rotate(0) translate(4 261.6)">
<title>Bash profile</title>
<polygon fill="#ffffff" stroke="transparent" points="-4,4 -4,-261.6 363.8008,-261.6 363.8008,4 -4,4"/>
<!-- read_profile -->
<g id="node1" class="node">
<title>read_profile</title>
<path fill="#b3cde3" stroke="#000000" d="M181.2574,-257.4019C181.2574,-257.4019 108.9908,-257.4019 108.9908,-257.4019 102.9908,-257.4019 96.9908,-251.4019 96.9908,-245.4019 96.9908,-245.4019 96.9908,-228.1981 96.9908,-228.1981 96.9908,-222.1981 102.9908,-216.1981 108.9908,-216.1981 108.9908,-216.1981 181.2574,-216.1981 181.2574,-216.1981 187.2574,-216.1981 193.2574,-222.1981 193.2574,-228.1981 193.2574,-228.1981 193.2574,-245.4019 193.2574,-245.4019 193.2574,-251.4019 187.2574,-257.4019 181.2574,-257.4019"/>
<text text-anchor="middle" x="145.1241" y="-241" font-family="Helvetica,sans-Serif" font-size="14.00" fill="#000000">Read profile</text>
<text text-anchor="middle" x="145.1241" y="-224.2" font-family="Helvetica,sans-Serif" font-size="14.00" fill="#000000">configuration</text>
</g>
<!-- etc_profile -->
<g id="node3" class="node">
<title>etc_profile</title>
<path fill="#ccebc5" stroke="#000000" d="M89.1919,-180C89.1919,-180 33.0563,-180 33.0563,-180 27.0563,-180 21.0563,-174 21.0563,-168 21.0563,-168 21.0563,-156 21.0563,-156 21.0563,-150 27.0563,-144 33.0563,-144 33.0563,-144 89.1919,-144 89.1919,-144 95.1919,-144 101.1919,-150 101.1919,-156 101.1919,-156 101.1919,-168 101.1919,-168 101.1919,-174 95.1919,-180 89.1919,-180"/>
<text text-anchor="middle" x="61.1241" y="-157.8" font-family="Helvetica,sans-Serif" font-size="14.00" fill="#000000">/etc/profile</text>
</g>
<!-- read_profile&#45;&gt;etc_profile -->
<g id="edge3" class="edge">
<title>read_profile&#45;&gt;etc_profile</title>
<path fill="none" stroke="#000000" d="M121.7254,-215.964C111.6675,-207.0077 99.8262,-196.4633 89.2917,-187.0826"/>
<polygon fill="#000000" stroke="#000000" points="91.3378,-184.218 81.5419,-180.1816 86.6826,-189.4458 91.3378,-184.218"/>
</g>
<!-- bash_profile -->
<g id="node4" class="node">
<title>bash_profile</title>
<path fill="#ccebc5" stroke="#000000" d="M216.3227,-180C216.3227,-180 131.9255,-180 131.9255,-180 125.9255,-180 119.9255,-174 119.9255,-168 119.9255,-168 119.9255,-156 119.9255,-156 119.9255,-150 125.9255,-144 131.9255,-144 131.9255,-144 216.3227,-144 216.3227,-144 222.3227,-144 228.3227,-150 228.3227,-156 228.3227,-156 228.3227,-168 228.3227,-168 228.3227,-174 222.3227,-180 216.3227,-180"/>
<text text-anchor="middle" x="174.1241" y="-157.8" font-family="Helvetica,sans-Serif" font-size="14.00" fill="#000000">~/.bash_profile</text>
</g>
<!-- read_profile&#45;&gt;bash_profile -->
<g id="edge5" class="edge">
<title>read_profile&#45;&gt;bash_profile</title>
<path fill="none" stroke="#000000" d="M153.2022,-215.964C156.3682,-207.798 160.046,-198.3117 163.427,-189.591"/>
<polygon fill="#000000" stroke="#000000" points="166.7235,-190.7706 167.0751,-180.1816 160.1969,-188.2402 166.7235,-190.7706"/>
</g>
<!-- read_rc -->
<g id="node2" class="node">
<title>read_rc</title>
<path fill="#b3cde3" stroke="#000000" d="M347.9782,-254.8C347.9782,-254.8 276.27,-254.8 276.27,-254.8 270.27,-254.8 264.27,-248.8 264.27,-242.8 264.27,-242.8 264.27,-230.8 264.27,-230.8 264.27,-224.8 270.27,-218.8 276.27,-218.8 276.27,-218.8 347.9782,-218.8 347.9782,-218.8 353.9782,-218.8 359.9782,-224.8 359.9782,-230.8 359.9782,-230.8 359.9782,-242.8 359.9782,-242.8 359.9782,-248.8 353.9782,-254.8 347.9782,-254.8"/>
<text text-anchor="middle" x="312.1241" y="-232.6" font-family="Helvetica,sans-Serif" font-size="14.00" fill="#000000">Read bashrc</text>
</g>
<!-- bashrc2 -->
<g id="node7" class="node">
<title>bashrc2</title>
<path fill="#ccebc5" stroke="#000000" d="M337.0883,-180C337.0883,-180 287.1599,-180 287.1599,-180 281.1599,-180 275.1599,-174 275.1599,-168 275.1599,-168 275.1599,-156 275.1599,-156 275.1599,-150 281.1599,-144 287.1599,-144 287.1599,-144 337.0883,-144 337.0883,-144 343.0883,-144 349.0883,-150 349.0883,-156 349.0883,-156 349.0883,-168 349.0883,-168 349.0883,-174 343.0883,-180 337.0883,-180"/>
<text text-anchor="middle" x="312.1241" y="-157.8" font-family="Helvetica,sans-Serif" font-size="14.00" fill="#000000">~/.bashrc</text>
</g>
<!-- read_rc&#45;&gt;bashrc2 -->
<g id="edge1" class="edge">
<title>read_rc&#45;&gt;bashrc2</title>
<path fill="none" stroke="#000000" d="M312.1241,-218.693C312.1241,-210.2112 312.1241,-199.9062 312.1241,-190.4204"/>
<polygon fill="#000000" stroke="#000000" points="315.6242,-190.1995 312.1241,-180.1995 308.6242,-190.1995 315.6242,-190.1995"/>
</g>
<!-- etc_profile_sh -->
<g id="node9" class="node">
<title>etc_profile_sh</title>
<path fill="#ccebc5" stroke="#000000" d="M108.3726,-108C108.3726,-108 11.8756,-108 11.8756,-108 5.8756,-108 -.1244,-102 -.1244,-96 -.1244,-96 -.1244,-84 -.1244,-84 -.1244,-78 5.8756,-72 11.8756,-72 11.8756,-72 108.3726,-72 108.3726,-72 114.3726,-72 120.3726,-78 120.3726,-84 120.3726,-84 120.3726,-96 120.3726,-96 120.3726,-102 114.3726,-108 108.3726,-108"/>
<text text-anchor="middle" x="60.1241" y="-85.8" font-family="Helvetica,sans-Serif" font-size="14.00" fill="#000000">/etc/profile.d/*.sh</text>
</g>
<!-- etc_profile&#45;&gt;etc_profile_sh -->
<g id="edge4" class="edge">
<title>etc_profile&#45;&gt;etc_profile_sh</title>
<path fill="none" stroke="#000000" d="M60.8718,-143.8314C60.7648,-136.131 60.6376,-126.9743 60.5188,-118.4166"/>
<polygon fill="#000000" stroke="#000000" points="64.0185,-118.3637 60.3798,-108.4133 57.0192,-118.4609 64.0185,-118.3637"/>
</g>
<!-- bashrc -->
<g id="node5" class="node">
<title>bashrc</title>
<path fill="#ccebc5" stroke="#000000" d="M200.0883,-108C200.0883,-108 150.1599,-108 150.1599,-108 144.1599,-108 138.1599,-102 138.1599,-96 138.1599,-96 138.1599,-84 138.1599,-84 138.1599,-78 144.1599,-72 150.1599,-72 150.1599,-72 200.0883,-72 200.0883,-72 206.0883,-72 212.0883,-78 212.0883,-84 212.0883,-84 212.0883,-96 212.0883,-96 212.0883,-102 206.0883,-108 200.0883,-108"/>
<text text-anchor="middle" x="175.1241" y="-85.8" font-family="Helvetica,sans-Serif" font-size="14.00" fill="#000000">~/.bashrc</text>
</g>
<!-- bash_profile&#45;&gt;bashrc -->
<g id="edge6" class="edge">
<title>bash_profile&#45;&gt;bashrc</title>
<path fill="none" stroke="#000000" d="M174.3764,-143.8314C174.4834,-136.131 174.6106,-126.9743 174.7294,-118.4166"/>
<polygon fill="#000000" stroke="#000000" points="178.229,-118.4609 174.8684,-108.4133 171.2297,-118.3637 178.229,-118.4609"/>
</g>
<!-- etc_bashrc -->
<g id="node6" class="node">
<title>etc_bashrc</title>
<path fill="#ccebc5" stroke="#000000" d="M205.5882,-36C205.5882,-36 144.66,-36 144.66,-36 138.66,-36 132.66,-30 132.66,-24 132.66,-24 132.66,-12 132.66,-12 132.66,-6 138.66,0 144.66,0 144.66,0 205.5882,0 205.5882,0 211.5882,0 217.5882,-6 217.5882,-12 217.5882,-12 217.5882,-24 217.5882,-24 217.5882,-30 211.5882,-36 205.5882,-36"/>
<text text-anchor="middle" x="175.1241" y="-13.8" font-family="Helvetica,sans-Serif" font-size="14.00" fill="#000000">/etc/bashrc</text>
</g>
<!-- bashrc&#45;&gt;etc_bashrc -->
<g id="edge7" class="edge">
<title>bashrc&#45;&gt;etc_bashrc</title>
<path fill="none" stroke="#000000" d="M175.1241,-71.8314C175.1241,-64.131 175.1241,-54.9743 175.1241,-46.4166"/>
<polygon fill="#000000" stroke="#000000" points="178.6242,-46.4132 175.1241,-36.4133 171.6242,-46.4133 178.6242,-46.4132"/>
</g>
<!-- etc_bashrc2 -->
<g id="node8" class="node">
<title>etc_bashrc2</title>
<path fill="#ccebc5" stroke="#000000" d="M342.5882,-108C342.5882,-108 281.66,-108 281.66,-108 275.66,-108 269.66,-102 269.66,-96 269.66,-96 269.66,-84 269.66,-84 269.66,-78 275.66,-72 281.66,-72 281.66,-72 342.5882,-72 342.5882,-72 348.5882,-72 354.5882,-78 354.5882,-84 354.5882,-84 354.5882,-96 354.5882,-96 354.5882,-102 348.5882,-108 342.5882,-108"/>
<text text-anchor="middle" x="312.1241" y="-85.8" font-family="Helvetica,sans-Serif" font-size="14.00" fill="#000000">/etc/bashrc</text>
</g>
<!-- bashrc2&#45;&gt;etc_bashrc2 -->
<g id="edge2" class="edge">
<title>bashrc2&#45;&gt;etc_bashrc2</title>
<path fill="none" stroke="#000000" d="M312.1241,-143.8314C312.1241,-136.131 312.1241,-126.9743 312.1241,-118.4166"/>
<polygon fill="#000000" stroke="#000000" points="315.6242,-118.4132 312.1241,-108.4133 308.6242,-118.4133 315.6242,-118.4132"/>
</g>
</g>
</svg>
