<?xml version="1.0" encoding="UTF-8" standalone="no"?>
<!DOCTYPE svg PUBLIC "-//W3C//DTD SVG 1.1//EN" "http://www.w3.org/Graphics/SVG/1.1/DTD/svg11.dtd">
<!--
Generated with Graphviz (http://viz-js.com/)
digraph "Bash config"{

  rankdir=LR

  graph [fontname="helvetica"]
  edge [fontname="helvetica"]
  node [
    fontname="helvetica",
    shape="box",
    style="rounded,filled",
    colorscheme="pastel13",
    fillcolor="3"
  ]
  
  bash_profile [label="Bash profile"]
  bashrc
  nothing
  start [fillcolor="1"]
  
  node [fillcolor="2" ]
  is_interactive_login [label="Interactive\nlogin?" shape="diamond"]
  is_interactive [label="Interactive?" shape="diamond" height="1em"]
  hidden[label="" style="invis", fixedsize="true", width="0", height="0"]
  
  start -> is_interactive_login
  is_interactive_login -> bash_profile [label="yes"];
  is_interactive_login-> is_interactive [label="no"];
  is_interactive -> bashrc [label="yes"];
  is_interactive -> hidden [dir="none"];
  hidden -> nothing  [label="no"];
  
  {rank = same; bash_profile; bashrc;}
  {rank = same; is_interactive_login; is_interactive; hidden}
}
-->
<!-- Generated by graphviz version 2.40.1 (20161225.0304) -->
<!-- Title: Bash config Pages: 1 -->
<svg width="408pt" height="253pt" viewBox="0.00 0.00 407.83 252.60" xmlns="http://www.w3.org/2000/svg" xmlns:xlink="http://www.w3.org/1999/xlink">
<g id="graph0" class="graph" transform="scale(1 1) rotate(0) translate(4 248.6)">
<title>Bash config</title>
<polygon fill="#ffffff" stroke="transparent" points="-4,4 -4,-248.6 403.826,-248.6 403.826,4 -4,4"/>
<!-- bash_profile -->
<g id="node1" class="node">
<title>bash_profile</title>
<path fill="#ccebc5" stroke="#000000" d="M387.7784,-221C387.7784,-221 321.969,-221 321.969,-221 315.969,-221 309.969,-215 309.969,-209 309.969,-209 309.969,-197 309.969,-197 309.969,-191 315.969,-185 321.969,-185 321.969,-185 387.7784,-185 387.7784,-185 393.7784,-185 399.7784,-191 399.7784,-197 399.7784,-197 399.7784,-209 399.7784,-209 399.7784,-215 393.7784,-221 387.7784,-221"/>
<text text-anchor="middle" x="354.8737" y="-198.8" font-family="Helvetica,sans-Serif" font-size="14.00" fill="#000000">Bash profile</text>
</g>
<!-- bashrc -->
<g id="node2" class="node">
<title>bashrc</title>
<path fill="#ccebc5" stroke="#000000" d="M371.8821,-108C371.8821,-108 337.8653,-108 337.8653,-108 331.8653,-108 325.8653,-102 325.8653,-96 325.8653,-96 325.8653,-84 325.8653,-84 325.8653,-78 331.8653,-72 337.8653,-72 337.8653,-72 371.8821,-72 371.8821,-72 377.8821,-72 383.8821,-78 383.8821,-84 383.8821,-84 383.8821,-96 383.8821,-96 383.8821,-102 377.8821,-108 371.8821,-108"/>
<text text-anchor="middle" x="354.8737" y="-85.8" font-family="Helvetica,sans-Serif" font-size="14.00" fill="#000000">bashrc</text>
</g>
<!-- nothing -->
<g id="node3" class="node">
<title>nothing</title>
<path fill="#ccebc5" stroke="#000000" d="M373.784,-36C373.784,-36 335.9634,-36 335.9634,-36 329.9634,-36 323.9634,-30 323.9634,-24 323.9634,-24 323.9634,-12 323.9634,-12 323.9634,-6 329.9634,0 335.9634,0 335.9634,0 373.784,0 373.784,0 379.784,0 385.784,-6 385.784,-12 385.784,-12 385.784,-24 385.784,-24 385.784,-30 379.784,-36 373.784,-36"/>
<text text-anchor="middle" x="354.8737" y="-13.8" font-family="Helvetica,sans-Serif" font-size="14.00" fill="#000000">nothing</text>
</g>
<!-- start -->
<g id="node4" class="node">
<title>start</title>
<path fill="#fbb4ae" stroke="#000000" d="M42,-221C42,-221 12,-221 12,-221 6,-221 0,-215 0,-209 0,-209 0,-197 0,-197 0,-191 6,-185 12,-185 12,-185 42,-185 42,-185 48,-185 54,-191 54,-197 54,-197 54,-209 54,-209 54,-215 48,-221 42,-221"/>
<text text-anchor="middle" x="27" y="-198.8" font-family="Helvetica,sans-Serif" font-size="14.00" fill="#000000">start</text>
</g>
<!-- is_interactive_login -->
<g id="node5" class="node">
<title>is_interactive_login</title>
<path fill="#b3cde3" stroke="#000000" d="M160.9103,-239.1882C160.9103,-239.1882 101.5897,-208.5121 101.5897,-208.5121 96.2601,-205.756 96.2601,-200.244 101.5897,-197.4879 101.5897,-197.4879 160.9103,-166.8118 160.9103,-166.8118 166.2398,-164.0558 176.899,-164.0558 182.2285,-166.8118 182.2285,-166.8118 241.5491,-197.4879 241.5491,-197.4879 246.8787,-200.244 246.8787,-205.756 241.5491,-208.5121 241.5491,-208.5121 182.2285,-239.1882 182.2285,-239.1882 176.899,-241.9442 166.2398,-241.9442 160.9103,-239.1882"/>
<text text-anchor="middle" x="171.5694" y="-207.2" font-family="Helvetica,sans-Serif" font-size="14.00" fill="#000000">Interactive</text>
<text text-anchor="middle" x="171.5694" y="-190.4" font-family="Helvetica,sans-Serif" font-size="14.00" fill="#000000">login?</text>
</g>
<!-- start&#45;&gt;is_interactive_login -->
<g id="edge1" class="edge">
<title>start&#45;&gt;is_interactive_login</title>
<path fill="none" stroke="#000000" d="M54.1924,-203C62.0842,-203 71.1699,-203 80.7193,-203"/>
<polygon fill="#000000" stroke="#000000" points="80.8081,-206.5001 90.808,-203 80.808,-199.5001 80.8081,-206.5001"/>
</g>
<!-- is_interactive_login&#45;&gt;bash_profile -->
<g id="edge2" class="edge">
<title>is_interactive_login&#45;&gt;bash_profile</title>
<path fill="none" stroke="#000000" d="M252.2361,-203C268.3127,-203 284.8468,-203 299.8212,-203"/>
<polygon fill="#000000" stroke="#000000" points="299.9142,-206.5001 309.9142,-203 299.9141,-199.5001 299.9142,-206.5001"/>
<text text-anchor="middle" x="281.0301" y="-207.2" font-family="Helvetica,sans-Serif" font-size="14.00" fill="#000000">yes</text>
</g>
<!-- is_interactive -->
<g id="node6" class="node">
<title>is_interactive</title>
<path fill="#b3cde3" stroke="#000000" d="M161.0132,-120.2933C161.0132,-120.2933 115.5326,-95.7067 115.5326,-95.7067 110.2545,-92.8533 110.2545,-87.1467 115.5326,-84.2933 115.5326,-84.2933 161.0132,-59.7067 161.0132,-59.7067 166.2913,-56.8533 176.8475,-56.8533 182.1256,-59.7067 182.1256,-59.7067 227.6062,-84.2933 227.6062,-84.2933 232.8843,-87.1467 232.8843,-92.8533 227.6062,-95.7067 227.6062,-95.7067 182.1256,-120.2933 182.1256,-120.2933 176.8475,-123.1467 166.2913,-123.1467 161.0132,-120.2933"/>
<text text-anchor="middle" x="171.5694" y="-85.8" font-family="Helvetica,sans-Serif" font-size="14.00" fill="#000000">Interactive?</text>
</g>
<!-- is_interactive_login&#45;&gt;is_interactive -->
<g id="edge3" class="edge">
<title>is_interactive_login&#45;&gt;is_interactive</title>
<path fill="none" stroke="#000000" d="M171.5694,-161.3756C171.5694,-153.1381 171.5694,-144.4464 171.5694,-136.0714"/>
<polygon fill="#000000" stroke="#000000" points="175.0695,-136.0646 171.5694,-126.0646 168.0695,-136.0646 175.0695,-136.0646"/>
<text text-anchor="middle" x="160.1694" y="-139.5" font-family="Helvetica,sans-Serif" font-size="14.00" fill="#000000">no</text>
</g>
<!-- is_interactive&#45;&gt;bashrc -->
<g id="edge4" class="edge">
<title>is_interactive&#45;&gt;bashrc</title>
<path fill="none" stroke="#000000" d="M238.265,-90C264.2459,-90 293.123,-90 315.6407,-90"/>
<polygon fill="#000000" stroke="#000000" points="315.8239,-93.5001 325.8238,-90 315.8238,-86.5001 315.8239,-93.5001"/>
<text text-anchor="middle" x="281.0301" y="-94.2" font-family="Helvetica,sans-Serif" font-size="14.00" fill="#000000">yes</text>
</g>
<!-- hidden -->
<!-- is_interactive&#45;&gt;hidden -->
<g id="edge5" class="edge">
<title>is_interactive&#45;&gt;hidden</title>
<path fill="none" stroke="#000000" d="M171.5694,-53.7231C171.5694,-42.0029 171.5694,-30.2827 171.5694,-18.5625"/>
</g>
<!-- hidden&#45;&gt;nothing -->
<g id="edge6" class="edge">
<title>hidden&#45;&gt;nothing</title>
<path fill="none" stroke="#000000" d="M172.0952,-18C179.4428,-18 262.1089,-18 313.7185,-18"/>
<polygon fill="#000000" stroke="#000000" points="313.9083,-21.5001 323.9082,-18 313.9082,-14.5001 313.9083,-21.5001"/>
<text text-anchor="middle" x="281.0301" y="-22.2" font-family="Helvetica,sans-Serif" font-size="14.00" fill="#000000">no</text>
</g>
</g>
</svg>
