<?xml version="1.0" encoding="UTF-8" standalone="no"?>
<!DOCTYPE svg PUBLIC "-//W3C//DTD SVG 1.1//EN"
  "http://www.w3.org/Graphics/SVG/1.1/DTD/svg11.dtd">
<!--
Generated with Graphviz (http://www.webgraphviz.com/)

digraph "DNS request"{
  rankdir=LR
  graph [fontname="helvetica"]
  node [fontname="helvetica", shape="box", style="rounded"]
  edge [fontname="helvetica"]

  subgraph cluster_0 {
    label = "localhost"
    style="filled,rounded"
    color=lightgrey
    process [style="filled", color="white", style="filled,rounded"]

  }
  subgraph cluster_1 {
    label = "DNS server"
    style="filled,rounded"
    color=lightblue
    remote_ip [label="1.1.1.1", style="filled", color="white", style="filled,rounded"]
  }
  process -> remote_ip [label="DNS query\n(udp/53)"]
}
-->
<!-- Generated by graphviz version 2.28.0 (20110507.0327) -->
<svg width="282pt" height="101pt" viewBox="0.00 0.00 282.00 101.00" xmlns="http://www.w3.org/2000/svg" xmlns:xlink="http://www.w3.org/1999/xlink">
<g id="graph1" class="graph" transform="scale(1 1) rotate(0) translate(4 97)">
<title>DNS request</title>
<polygon fill="white" stroke="white" points="-4,5 -4,-97 279,-97 279,5 -4,5"></polygon>
<g id="graph2" class="cluster"><title>cluster_0</title>
<polygon fill="lightgrey" stroke="lightgrey" points="20,-8 78,-8 90,-20 90,-73 78,-85 20,-85 8,-73 8,-20 20,-8"></polygon>
<path fill="lightgrey" stroke="lightgrey" d="M78,-8C84,-8 90,-14 90,-20"></path>
<path fill="lightgrey" stroke="lightgrey" d="M90,-73C90,-79 84,-85 78,-85"></path>
<path fill="lightgrey" stroke="lightgrey" d="M20,-85C14,-85 8,-79 8,-73"></path>
<path fill="lightgrey" stroke="lightgrey" d="M8,-20C8,-14 14,-8 20,-8"></path>
<polyline fill="none" stroke="lightgrey" points="20,-8 78,-8 "></polyline>
<path fill="none" stroke="lightgrey" d="M78,-8C84,-8 90,-14 90,-20"></path>
<polyline fill="none" stroke="lightgrey" points="90,-20 90,-73 "></polyline>
<path fill="none" stroke="lightgrey" d="M90,-73C90,-79 84,-85 78,-85"></path>
<polyline fill="none" stroke="lightgrey" points="78,-85 20,-85 "></polyline>
<path fill="none" stroke="lightgrey" d="M20,-85C14,-85 8,-79 8,-73"></path>
<polyline fill="none" stroke="lightgrey" points="8,-73 8,-20 "></polyline>
<path fill="none" stroke="lightgrey" d="M8,-20C8,-14 14,-8 20,-8"></path>
<text text-anchor="middle" x="49" y="-68.4" font-family="Helvetica,sans-Serif" font-size="14.00">localhost</text>
</g>
<g id="graph3" class="cluster"><title>cluster_1</title>
<polygon fill="lightblue" stroke="lightblue" points="190,-8 254,-8 266,-20 266,-73 254,-85 190,-85 178,-73 178,-20 190,-8"></polygon>
<path fill="lightblue" stroke="lightblue" d="M254,-8C260,-8 266,-14 266,-20"></path>
<path fill="lightblue" stroke="lightblue" d="M266,-73C266,-79 260,-85 254,-85"></path>
<path fill="lightblue" stroke="lightblue" d="M190,-85C184,-85 178,-79 178,-73"></path>
<path fill="lightblue" stroke="lightblue" d="M178,-20C178,-14 184,-8 190,-8"></path>
<polyline fill="none" stroke="lightblue" points="190,-8 254,-8 "></polyline>
<path fill="none" stroke="lightblue" d="M254,-8C260,-8 266,-14 266,-20"></path>
<polyline fill="none" stroke="lightblue" points="266,-20 266,-73 "></polyline>
<path fill="none" stroke="lightblue" d="M266,-73C266,-79 260,-85 254,-85"></path>
<polyline fill="none" stroke="lightblue" points="254,-85 190,-85 "></polyline>
<path fill="none" stroke="lightblue" d="M190,-85C184,-85 178,-79 178,-73"></path>
<polyline fill="none" stroke="lightblue" points="178,-73 178,-20 "></polyline>
<path fill="none" stroke="lightblue" d="M178,-20C178,-14 184,-8 190,-8"></path>
<text text-anchor="middle" x="222" y="-68.4" font-family="Helvetica,sans-Serif" font-size="14.00">DNS server</text>
</g>
<!-- process -->
<g id="node2" class="node"><title>process</title>
<polygon fill="white" stroke="white" points="69.5084,-52 28.4916,-52 16.4916,-40 16.4916,-28 28.4916,-16 69.5084,-16 81.5084,-28 81.5084,-40 69.5084,-52"></polygon>
<path fill="white" stroke="white" d="M28.4916,-52C22.4916,-52 16.4916,-46 16.4916,-40"></path>
<path fill="white" stroke="white" d="M16.4916,-28C16.4916,-22 22.4916,-16 28.4916,-16"></path>
<path fill="white" stroke="white" d="M69.5084,-16C75.5084,-16 81.5084,-22 81.5084,-28"></path>
<path fill="white" stroke="white" d="M81.5084,-40C81.5084,-46 75.5084,-52 69.5084,-52"></path>
<polyline fill="none" stroke="white" points="69.5084,-52 28.4916,-52 "></polyline>
<path fill="none" stroke="white" d="M28.4916,-52C22.4916,-52 16.4916,-46 16.4916,-40"></path>
<polyline fill="none" stroke="white" points="16.4916,-40 16.4916,-28 "></polyline>
<path fill="none" stroke="white" d="M16.4916,-28C16.4916,-22 22.4916,-16 28.4916,-16"></path>
<polyline fill="none" stroke="white" points="28.4916,-16 69.5084,-16 "></polyline>
<path fill="none" stroke="white" d="M69.5084,-16C75.5084,-16 81.5084,-22 81.5084,-28"></path>
<polyline fill="none" stroke="white" points="81.5084,-28 81.5084,-40 "></polyline>
<path fill="none" stroke="white" d="M81.5084,-40C81.5084,-46 75.5084,-52 69.5084,-52"></path>
<text text-anchor="middle" x="49" y="-29.8" font-family="Helvetica,sans-Serif" font-size="14.00">process</text>
</g>
<!-- remote_ip -->
<g id="node4" class="node"><title>remote_ip</title>
<polygon fill="white" stroke="white" points="239.303,-52 204.697,-52 192.697,-40 192.697,-28 204.697,-16 239.303,-16 251.303,-28 251.303,-40 239.303,-52"></polygon>
<path fill="white" stroke="white" d="M204.697,-52C198.697,-52 192.697,-46 192.697,-40"></path>
<path fill="white" stroke="white" d="M192.697,-28C192.697,-22 198.697,-16 204.697,-16"></path>
<path fill="white" stroke="white" d="M239.303,-16C245.303,-16 251.303,-22 251.303,-28"></path>
<path fill="white" stroke="white" d="M251.303,-40C251.303,-46 245.303,-52 239.303,-52"></path>
<polyline fill="none" stroke="white" points="239.303,-52 204.697,-52 "></polyline>
<path fill="none" stroke="white" d="M204.697,-52C198.697,-52 192.697,-46 192.697,-40"></path>
<polyline fill="none" stroke="white" points="192.697,-40 192.697,-28 "></polyline>
<path fill="none" stroke="white" d="M192.697,-28C192.697,-22 198.697,-16 204.697,-16"></path>
<polyline fill="none" stroke="white" points="204.697,-16 239.303,-16 "></polyline>
<path fill="none" stroke="white" d="M239.303,-16C245.303,-16 251.303,-22 251.303,-28"></path>
<polyline fill="none" stroke="white" points="251.303,-28 251.303,-40 "></polyline>
<path fill="none" stroke="white" d="M251.303,-40C251.303,-46 245.303,-52 239.303,-52"></path>
<text text-anchor="middle" x="222" y="-29.8" font-family="Helvetica,sans-Serif" font-size="14.00">1.1.1.1</text>
</g>
<!-- process&#45;&gt;remote_ip -->
<g id="edge4" class="edge"><title>process-&gt;remote_ip</title>
<path fill="none" stroke="black" d="M81.763,-34C110.188,-34 151.94,-34 182.306,-34"></path>
<polygon fill="black" stroke="black" points="182.531,-37.5001 192.531,-34 182.531,-30.5001 182.531,-37.5001"></polygon>
<text text-anchor="middle" x="134" y="-55" font-family="Helvetica,sans-Serif" font-size="14.00">DNS query</text>
<text text-anchor="middle" x="134" y="-38.2" font-family="Helvetica,sans-Serif" font-size="14.00">(udp/53)</text>
</g>
</g>
</svg>
