<?xml version="1.0" encoding="UTF-8" standalone="no"?>
<!DOCTYPE svg PUBLIC "-//W3C//DTD SVG 1.1//EN"
  "http://www.w3.org/Graphics/SVG/1.1/DTD/svg11.dtd">
<!--
Generated with Graphviz (http://www.webgraphviz.com/)

digraph "DNS request (cached)"{
  rankdir=LR
  graph [fontname="helvetica"]
  node [fontname="helvetica", shape="box", style="rounded"]
  edge [fontname="helvetica"]

  subgraph cluster_0 {
    label = "localhost"
    style="filled,rounded"
    color=lightgrey
    process [style="filled", color="white", style="filled,rounded"]
    unbound[style="filled", color="white", style="filled,rounded"]
  }
  subgraph cluster_1 {
    label = "DNS server"
    style="filled,rounded"
    color=lightblue
    remote_ip [label="1.1.1.1", style="filled", color="white", style="filled,rounded"]
  }

  process -> unbound
  unbound -> remote_ip [label="DNS query\n(udp/53)", style="invis"]
}
-->
<!-- Generated by graphviz version 2.28.0 (20110507.0327) -->
<svg width="390pt" height="101pt" viewBox="0.00 0.00 390.00 101.00" xmlns="http://www.w3.org/2000/svg" xmlns:xlink="http://www.w3.org/1999/xlink">
<g id="graph1" class="graph" transform="scale(1 1) rotate(0) translate(4 97)">
<title>DNS request (cached)</title>
<polygon fill="white" stroke="white" points="-4,5 -4,-97 387,-97 387,5 -4,5"></polygon>
<g id="graph2" class="cluster"><title>cluster_0</title>
<polygon fill="lightgrey" stroke="lightgrey" points="20,-8 186,-8 198,-20 198,-73 186,-85 20,-85 8,-73 8,-20 20,-8"></polygon>
<path fill="lightgrey" stroke="lightgrey" d="M186,-8C192,-8 198,-14 198,-20"></path>
<path fill="lightgrey" stroke="lightgrey" d="M198,-73C198,-79 192,-85 186,-85"></path>
<path fill="lightgrey" stroke="lightgrey" d="M20,-85C14,-85 8,-79 8,-73"></path>
<path fill="lightgrey" stroke="lightgrey" d="M8,-20C8,-14 14,-8 20,-8"></path>
<polyline fill="none" stroke="lightgrey" points="20,-8 186,-8 "></polyline>
<path fill="none" stroke="lightgrey" d="M186,-8C192,-8 198,-14 198,-20"></path>
<polyline fill="none" stroke="lightgrey" points="198,-20 198,-73 "></polyline>
<path fill="none" stroke="lightgrey" d="M198,-73C198,-79 192,-85 186,-85"></path>
<polyline fill="none" stroke="lightgrey" points="186,-85 20,-85 "></polyline>
<path fill="none" stroke="lightgrey" d="M20,-85C14,-85 8,-79 8,-73"></path>
<polyline fill="none" stroke="lightgrey" points="8,-73 8,-20 "></polyline>
<path fill="none" stroke="lightgrey" d="M8,-20C8,-14 14,-8 20,-8"></path>
<text text-anchor="middle" x="103" y="-68.4" font-family="Helvetica,sans-Serif" font-size="14.00">localhost</text>
</g>
<g id="graph3" class="cluster"><title>cluster_1</title>
<polygon fill="lightblue" stroke="lightblue" points="298,-8 362,-8 374,-20 374,-73 362,-85 298,-85 286,-73 286,-20 298,-8"></polygon>
<path fill="lightblue" stroke="lightblue" d="M362,-8C368,-8 374,-14 374,-20"></path>
<path fill="lightblue" stroke="lightblue" d="M374,-73C374,-79 368,-85 362,-85"></path>
<path fill="lightblue" stroke="lightblue" d="M298,-85C292,-85 286,-79 286,-73"></path>
<path fill="lightblue" stroke="lightblue" d="M286,-20C286,-14 292,-8 298,-8"></path>
<polyline fill="none" stroke="lightblue" points="298,-8 362,-8 "></polyline>
<path fill="none" stroke="lightblue" d="M362,-8C368,-8 374,-14 374,-20"></path>
<polyline fill="none" stroke="lightblue" points="374,-20 374,-73 "></polyline>
<path fill="none" stroke="lightblue" d="M374,-73C374,-79 368,-85 362,-85"></path>
<polyline fill="none" stroke="lightblue" points="362,-85 298,-85 "></polyline>
<path fill="none" stroke="lightblue" d="M298,-85C292,-85 286,-79 286,-73"></path>
<polyline fill="none" stroke="lightblue" points="286,-73 286,-20 "></polyline>
<path fill="none" stroke="lightblue" d="M286,-20C286,-14 292,-8 298,-8"></path>
<text text-anchor="middle" x="330" y="-68.4" font-family="Helvetica,sans-Serif" font-size="14.00">DNS server</text>
</g>
<!-- process -->
<g id="node2" class="node"><title>process</title>
<polygon fill="white" stroke="white" points="69.5084,-52 28.4916,-52 16.4916,-40 16.4916,-28 28.4916,-16 69.5084,-16 81.5084,-28 81.5084,-40 69.5084,-52"></polygon>
<path fill="white" stroke="white" d="M28.4916,-52C22.4916,-52 16.4916,-46 16.4916,-40"></path>
<path fill="white" stroke="white" d="M16.4916,-28C16.4916,-22 22.4916,-16 28.4916,-16"></path>
<path fill="white" stroke="white" d="M69.5084,-16C75.5084,-16 81.5084,-22 81.5084,-28"></path>
<path fill="white" stroke="white" d="M81.5084,-40C81.5084,-46 75.5084,-52 69.5084,-52"></path>
<polyline fill="none" stroke="white" points="69.5084,-52 28.4916,-52 "></polyline>
<path fill="none" stroke="white" d="M28.4916,-52C22.4916,-52 16.4916,-46 16.4916,-40"></path>
<polyline fill="none" stroke="white" points="16.4916,-40 16.4916,-28 "></polyline>
<path fill="none" stroke="white" d="M16.4916,-28C16.4916,-22 22.4916,-16 28.4916,-16"></path>
<polyline fill="none" stroke="white" points="28.4916,-16 69.5084,-16 "></polyline>
<path fill="none" stroke="white" d="M69.5084,-16C75.5084,-16 81.5084,-22 81.5084,-28"></path>
<polyline fill="none" stroke="white" points="81.5084,-28 81.5084,-40 "></polyline>
<path fill="none" stroke="white" d="M81.5084,-40C81.5084,-46 75.5084,-52 69.5084,-52"></path>
<text text-anchor="middle" x="49" y="-29.8" font-family="Helvetica,sans-Serif" font-size="14.00">process</text>
</g>
<!-- unbound -->
<g id="node3" class="node"><title>unbound</title>
<polygon fill="white" stroke="white" points="178.48,-52 131.52,-52 119.52,-40 119.52,-28 131.52,-16 178.48,-16 190.48,-28 190.48,-40 178.48,-52"></polygon>
<path fill="white" stroke="white" d="M131.52,-52C125.52,-52 119.52,-46 119.52,-40"></path>
<path fill="white" stroke="white" d="M119.52,-28C119.52,-22 125.52,-16 131.52,-16"></path>
<path fill="white" stroke="white" d="M178.48,-16C184.48,-16 190.48,-22 190.48,-28"></path>
<path fill="white" stroke="white" d="M190.48,-40C190.48,-46 184.48,-52 178.48,-52"></path>
<polyline fill="none" stroke="white" points="178.48,-52 131.52,-52 "></polyline>
<path fill="none" stroke="white" d="M131.52,-52C125.52,-52 119.52,-46 119.52,-40"></path>
<polyline fill="none" stroke="white" points="119.52,-40 119.52,-28 "></polyline>
<path fill="none" stroke="white" d="M119.52,-28C119.52,-22 125.52,-16 131.52,-16"></path>
<polyline fill="none" stroke="white" points="131.52,-16 178.48,-16 "></polyline>
<path fill="none" stroke="white" d="M178.48,-16C184.48,-16 190.48,-22 190.48,-28"></path>
<polyline fill="none" stroke="white" points="190.48,-28 190.48,-40 "></polyline>
<path fill="none" stroke="white" d="M190.48,-40C190.48,-46 184.48,-52 178.48,-52"></path>
<text text-anchor="middle" x="155" y="-29.8" font-family="Helvetica,sans-Serif" font-size="14.00">unbound</text>
</g>
<!-- process&#45;&gt;unbound -->
<g id="edge4" class="edge"><title>process-&gt;unbound</title>
<path fill="none" stroke="black" d="M81.7685,-34C90.4488,-34 100.02,-34 109.278,-34"></path>
<polygon fill="black" stroke="black" points="109.532,-37.5001 119.532,-34 109.532,-30.5001 109.532,-37.5001"></polygon>
</g>
<!-- remote_ip -->
<g id="node5" class="node"><title>remote_ip</title>
<polygon fill="white" stroke="white" points="347.303,-52 312.697,-52 300.697,-40 300.697,-28 312.697,-16 347.303,-16 359.303,-28 359.303,-40 347.303,-52"></polygon>
<path fill="white" stroke="white" d="M312.697,-52C306.697,-52 300.697,-46 300.697,-40"></path>
<path fill="white" stroke="white" d="M300.697,-28C300.697,-22 306.697,-16 312.697,-16"></path>
<path fill="white" stroke="white" d="M347.303,-16C353.303,-16 359.303,-22 359.303,-28"></path>
<path fill="white" stroke="white" d="M359.303,-40C359.303,-46 353.303,-52 347.303,-52"></path>
<polyline fill="none" stroke="white" points="347.303,-52 312.697,-52 "></polyline>
<path fill="none" stroke="white" d="M312.697,-52C306.697,-52 300.697,-46 300.697,-40"></path>
<polyline fill="none" stroke="white" points="300.697,-40 300.697,-28 "></polyline>
<path fill="none" stroke="white" d="M300.697,-28C300.697,-22 306.697,-16 312.697,-16"></path>
<polyline fill="none" stroke="white" points="312.697,-16 347.303,-16 "></polyline>
<path fill="none" stroke="white" d="M347.303,-16C353.303,-16 359.303,-22 359.303,-28"></path>
<polyline fill="none" stroke="white" points="359.303,-28 359.303,-40 "></polyline>
<path fill="none" stroke="white" d="M359.303,-40C359.303,-46 353.303,-52 347.303,-52"></path>
<text text-anchor="middle" x="330" y="-29.8" font-family="Helvetica,sans-Serif" font-size="14.00">1.1.1.1</text>
</g>
<!-- unbound&#45;&gt;remote_ip -->
</g>
</svg>
