<?xml version="1.0" standalone="no"?>
<!DOCTYPE svg PUBLIC "-//W3C//DTD SVG 1.1//EN"
  "http://www.w3.org/Graphics/SVG/1.1/DTD/svg11.dtd">
<!--
Generated with Graphviz (http://www.webgraphviz.com/)

digraph "SOCKS Proxy"{
  rankdir=LR
  nodesep=0.8
  graph [fontname="helvetica"]
  node [fontname="helvetica", shape="box", style="rounded"]
  edge [fontname="helvetica"]

  subgraph cluster_0 {
    label = "localhost"
    style="filled,rounded"
    color=lightgrey
    node [style="filled", color="grey"]
    browser
    ssh
  }
  subgraph cluster_1 {
    label = "remotehost"
    style="filled,rounded"
    color=lightblue
    node [style="filled", color="white"]
    sshd
  }
  browser -> ssh [label="SOCKS connection\n(tcp/1080)"]
  ssh     -> sshd [label="SSH Tunnel\n(tcp/22)"]
  sshd    -> webserver [label="Web traffic\n(tcp/80, tcp/443)"]
}
-->
<!-- Generated by graphviz version 2.28.0 (20110507.0327)-->
<svg width="704pt" height="156pt" viewBox="0.00 0.00 704.00 156.00" xmlns="http://www.w3.org/2000/svg" xmlns:xlink="http://www.w3.org/1999/xlink">
<g id="graph1" class="graph" transform="scale(1 1) rotate(0) translate(4 152)">
<title>SOCKS Proxy</title>
<polygon fill="white" stroke="white" points="-4,5 -4,-152 701,-152 701,5 -4,5"></polygon>
<g id="graph2" class="cluster"><title>cluster_0</title>
<polygon fill="lightgrey" stroke="lightgrey" points="20,-8 290,-8 302,-20 302,-128 290,-140 20,-140 8,-128 8,-20 20,-8"></polygon>
<path fill="lightgrey" stroke="lightgrey" d="M290,-8C296,-8 302,-14 302,-20"></path>
<path fill="lightgrey" stroke="lightgrey" d="M302,-128C302,-134 296,-140 290,-140"></path>
<path fill="lightgrey" stroke="lightgrey" d="M20,-140C14,-140 8,-134 8,-128"></path>
<path fill="lightgrey" stroke="lightgrey" d="M8,-20C8,-14 14,-8 20,-8"></path>
<polyline fill="none" stroke="lightgrey" points="20,-8 290,-8 "></polyline>
<path fill="none" stroke="lightgrey" d="M290,-8C296,-8 302,-14 302,-20"></path>
<polyline fill="none" stroke="lightgrey" points="302,-20 302,-128 "></polyline>
<path fill="none" stroke="lightgrey" d="M302,-128C302,-134 296,-140 290,-140"></path>
<polyline fill="none" stroke="lightgrey" points="290,-140 20,-140 "></polyline>
<path fill="none" stroke="lightgrey" d="M20,-140C14,-140 8,-134 8,-128"></path>
<polyline fill="none" stroke="lightgrey" points="8,-128 8,-20 "></polyline>
<path fill="none" stroke="lightgrey" d="M8,-20C8,-14 14,-8 20,-8"></path>
<text text-anchor="middle" x="155" y="-123.4" font-family="Helvetica,sans-Serif" font-size="14.00">localhost</text>
</g>
<g id="graph3" class="cluster"><title>cluster_1</title>
<polygon fill="lightblue" stroke="lightblue" points="410,-48 472,-48 484,-60 484,-113 472,-125 410,-125 398,-113 398,-60 410,-48"></polygon>
<path fill="lightblue" stroke="lightblue" d="M472,-48C478,-48 484,-54 484,-60"></path>
<path fill="lightblue" stroke="lightblue" d="M484,-113C484,-119 478,-125 472,-125"></path>
<path fill="lightblue" stroke="lightblue" d="M410,-125C404,-125 398,-119 398,-113"></path>
<path fill="lightblue" stroke="lightblue" d="M398,-60C398,-54 404,-48 410,-48"></path>
<polyline fill="none" stroke="lightblue" points="410,-48 472,-48 "></polyline>
<path fill="none" stroke="lightblue" d="M472,-48C478,-48 484,-54 484,-60"></path>
<polyline fill="none" stroke="lightblue" points="484,-60 484,-113 "></polyline>
<path fill="none" stroke="lightblue" d="M484,-113C484,-119 478,-125 472,-125"></path>
<polyline fill="none" stroke="lightblue" points="472,-125 410,-125 "></polyline>
<path fill="none" stroke="lightblue" d="M410,-125C404,-125 398,-119 398,-113"></path>
<polyline fill="none" stroke="lightblue" points="398,-113 398,-60 "></polyline>
<path fill="none" stroke="lightblue" d="M398,-60C398,-54 404,-48 410,-48"></path>
<text text-anchor="middle" x="441" y="-108.4" font-family="Helvetica,sans-Serif" font-size="14.00">remotehost</text>
</g>
<!-- browser -->
<g id="node2" class="node"><title>browser</title>
<polygon fill="grey" stroke="grey" points="81.776,-92 16.224,-92 16.224,-56 81.776,-56 81.776,-92"></polygon>
<text text-anchor="middle" x="49" y="-69.8" font-family="Helvetica,sans-Serif" font-size="14.00">browser</text>
</g>
<!-- ssh -->
<g id="node3" class="node"><title>ssh</title>
<polygon fill="grey" stroke="grey" points="294,-92 240,-92 240,-56 294,-56 294,-92"></polygon>
<text text-anchor="middle" x="267" y="-69.8" font-family="Helvetica,sans-Serif" font-size="14.00">ssh</text>
</g>
<!-- browser&#45;&gt;ssh -->
<g id="edge4" class="edge"><title>browser-&gt;ssh</title>
<path fill="none" stroke="black" d="M81.8715,-74C121.275,-74 188.186,-74 229.579,-74"></path>
<polygon fill="black" stroke="black" points="229.774,-77.5001 239.774,-74 229.774,-70.5001 229.774,-77.5001"></polygon>
<text text-anchor="middle" x="161" y="-95" font-family="Helvetica,sans-Serif" font-size="14.00">SOCKS connection</text>
<text text-anchor="middle" x="161" y="-78.2" font-family="Helvetica,sans-Serif" font-size="14.00">(tcp/1080)</text>
</g>
<!-- sshd -->
<g id="node5" class="node"><title>sshd</title>
<polygon fill="white" stroke="white" points="468,-92 414,-92 414,-56 468,-56 468,-92"></polygon>
<text text-anchor="middle" x="441" y="-69.8" font-family="Helvetica,sans-Serif" font-size="14.00">sshd</text>
</g>
<!-- ssh&#45;&gt;sshd -->
<g id="edge6" class="edge"><title>ssh-&gt;sshd</title>
<path fill="none" stroke="black" d="M294.123,-74C323.379,-74 370.988,-74 403.816,-74"></path>
<polygon fill="black" stroke="black" points="403.913,-77.5001 413.913,-74 403.913,-70.5001 403.913,-77.5001"></polygon>
<text text-anchor="middle" x="350" y="-95" font-family="Helvetica,sans-Serif" font-size="14.00">SSH Tunnel</text>
<text text-anchor="middle" x="350" y="-78.2" font-family="Helvetica,sans-Serif" font-size="14.00">(tcp/22)</text>
</g>
<!-- webserver -->
<g id="node9" class="node"><title>webserver</title>
<polyline fill="none" stroke="black" points="683.059,-92 626.941,-92 "></polyline>
<path fill="none" stroke="black" d="M626.941,-92C620.941,-92 614.941,-86 614.941,-80"></path>
<polyline fill="none" stroke="black" points="614.941,-80 614.941,-68 "></polyline>
<path fill="none" stroke="black" d="M614.941,-68C614.941,-62 620.941,-56 626.941,-56"></path>
<polyline fill="none" stroke="black" points="626.941,-56 683.059,-56 "></polyline>
<path fill="none" stroke="black" d="M683.059,-56C689.059,-56 695.059,-62 695.059,-68"></path>
<polyline fill="none" stroke="black" points="695.059,-68 695.059,-80 "></polyline>
<path fill="none" stroke="black" d="M695.059,-80C695.059,-86 689.059,-92 683.059,-92"></path>
<text text-anchor="middle" x="655" y="-69.8" font-family="Helvetica,sans-Serif" font-size="14.00">webserver</text>
</g>
<!-- sshd&#45;&gt;webserver -->
<g id="edge8" class="edge"><title>sshd-&gt;webserver</title>
<path fill="none" stroke="black" d="M468.421,-74C502.363,-74 561.957,-74 604.455,-74"></path>
<polygon fill="black" stroke="black" points="604.595,-77.5001 614.595,-74 604.595,-70.5001 604.595,-77.5001"></polygon>
<text text-anchor="middle" x="545" y="-95" font-family="Helvetica,sans-Serif" font-size="14.00">Web traffic</text>
<text text-anchor="middle" x="545" y="-78.2" font-family="Helvetica,sans-Serif" font-size="14.00">(tcp/80, tcp/443)</text>
</g>
</g>
</svg>
