<?xml version="1.0" encoding="UTF-8" standalone="no"?>
<!DOCTYPE svg PUBLIC "-//W3C//DTD SVG 1.1//EN"
 "http://www.w3.org/Graphics/SVG/1.1/DTD/svg11.dtd">
<!-- Generated by graphviz version 2.43.0 (0)
digraph "ZFS layout" {
  splintes=true;
  rankdir=LR
  nodesep=0.1

  subgraph cluster_0 {
    style="rounded"
    color="#ffffff"

    node [margin="0,0.25";width="2.5";style="filled,rounded",shape="box",fontname="helvetica"]
    before_dataset [label="ZFS datasets", fillcolor="azure"]
    before_pool [label="ZFS pool", fillcolor="lightblue"]
    before_vdev [label="vdev", fillcolor="lightgrey"]
  }
  subgraph cluster_1 {
    style="rounded"
    color="#ffffff"

    node [margin="0,0.25";width=3;style="filled,rounded",shape="box",fontname="helvetica"]
    dataset [label="ZFS datasets", fillcolor="azure"]
    pool [label="ZFS pool", fillcolor="lightblue"]
    vdev [margin="0"; style=""; color="white"; label=<
        <table align="center" cellpadding="14" border="0" cellborder="1" cellspacing="7">
          <tr>
          <td color="black" bgcolor="lightgrey" style="rounded" width="104">vdev</td>
          <td color="black" bgcolor="lightgrey" style="rounded" width="104">vdev</td>
          </tr>
        </table>
      >, fillcolor="lightgrey"]
  }
  before_pool -> pool
}
 -->
<!-- Title: ZFS layout Pages: 1 -->
<svg width="485pt" height="216pt"
 viewBox="0.00 0.00 485.00 216.00" xmlns="http://www.w3.org/2000/svg" xmlns:xlink="http://www.w3.org/1999/xlink">
<g id="graph0" class="graph" transform="scale(1 1) rotate(0) translate(4 212)">
<title>ZFS layout</title>
<polygon fill="white" stroke="transparent" points="-4,4 -4,-212 481,-212 481,4 -4,4"/>
<g id="clust1" class="cluster">
<title>cluster_0</title>
<path fill="none" stroke="#ffffff" d="M20,-16C20,-16 192,-16 192,-16 198,-16 204,-22 204,-28 204,-28 204,-188 204,-188 204,-194 198,-200 192,-200 192,-200 20,-200 20,-200 14,-200 8,-194 8,-188 8,-188 8,-28 8,-28 8,-22 14,-16 20,-16"/>
</g>
<g id="clust2" class="cluster">
<title>cluster_1</title>
<path fill="none" stroke="#ffffff" d="M236,-8C236,-8 457,-8 457,-8 463,-8 469,-14 469,-20 469,-20 469,-188 469,-188 469,-194 463,-200 457,-200 457,-200 236,-200 236,-200 230,-200 224,-194 224,-188 224,-188 224,-20 224,-20 224,-14 230,-8 236,-8"/>
</g>
<!-- before_dataset -->
<g id="node1" class="node">
<title>before_dataset</title>
<path fill="azure" stroke="black" d="M184,-191.5C184,-191.5 28,-191.5 28,-191.5 22,-191.5 16,-185.5 16,-179.5 16,-179.5 16,-152.5 16,-152.5 16,-146.5 22,-140.5 28,-140.5 28,-140.5 184,-140.5 184,-140.5 190,-140.5 196,-146.5 196,-152.5 196,-152.5 196,-179.5 196,-179.5 196,-185.5 190,-191.5 184,-191.5"/>
<text text-anchor="middle" x="106" y="-162.3" font-family="Helvetica,sans-Serif" font-size="14.00">ZFS datasets</text>
</g>
<!-- before_pool -->
<g id="node2" class="node">
<title>before_pool</title>
<path fill="lightblue" stroke="black" d="M184,-133.5C184,-133.5 28,-133.5 28,-133.5 22,-133.5 16,-127.5 16,-121.5 16,-121.5 16,-94.5 16,-94.5 16,-88.5 22,-82.5 28,-82.5 28,-82.5 184,-82.5 184,-82.5 190,-82.5 196,-88.5 196,-94.5 196,-94.5 196,-121.5 196,-121.5 196,-127.5 190,-133.5 184,-133.5"/>
<text text-anchor="middle" x="106" y="-104.3" font-family="Helvetica,sans-Serif" font-size="14.00">ZFS pool</text>
</g>
<!-- pool -->
<g id="node5" class="node">
<title>pool</title>
<path fill="lightblue" stroke="black" d="M442.5,-133.5C442.5,-133.5 250.5,-133.5 250.5,-133.5 244.5,-133.5 238.5,-127.5 238.5,-121.5 238.5,-121.5 238.5,-94.5 238.5,-94.5 238.5,-88.5 244.5,-82.5 250.5,-82.5 250.5,-82.5 442.5,-82.5 442.5,-82.5 448.5,-82.5 454.5,-88.5 454.5,-94.5 454.5,-94.5 454.5,-121.5 454.5,-121.5 454.5,-127.5 448.5,-133.5 442.5,-133.5"/>
<text text-anchor="middle" x="346.5" y="-104.3" font-family="Helvetica,sans-Serif" font-size="14.00">ZFS pool</text>
</g>
<!-- before_pool&#45;&gt;pool -->
<g id="edge1" class="edge">
<title>before_pool&#45;&gt;pool</title>
<path fill="none" stroke="black" d="M196.15,-108C206.58,-108 217.33,-108 228.07,-108"/>
<polygon fill="black" stroke="black" points="228.34,-111.5 238.34,-108 228.34,-104.5 228.34,-111.5"/>
</g>
<!-- before_vdev -->
<g id="node3" class="node">
<title>before_vdev</title>
<path fill="lightgrey" stroke="black" d="M184,-75.5C184,-75.5 28,-75.5 28,-75.5 22,-75.5 16,-69.5 16,-63.5 16,-63.5 16,-36.5 16,-36.5 16,-30.5 22,-24.5 28,-24.5 28,-24.5 184,-24.5 184,-24.5 190,-24.5 196,-30.5 196,-36.5 196,-36.5 196,-63.5 196,-63.5 196,-69.5 190,-75.5 184,-75.5"/>
<text text-anchor="middle" x="106" y="-46.3" font-family="Helvetica,sans-Serif" font-size="14.00">vdev</text>
</g>
<!-- dataset -->
<g id="node4" class="node">
<title>dataset</title>
<path fill="azure" stroke="black" d="M442.5,-191.5C442.5,-191.5 250.5,-191.5 250.5,-191.5 244.5,-191.5 238.5,-185.5 238.5,-179.5 238.5,-179.5 238.5,-152.5 238.5,-152.5 238.5,-146.5 244.5,-140.5 250.5,-140.5 250.5,-140.5 442.5,-140.5 442.5,-140.5 448.5,-140.5 454.5,-146.5 454.5,-152.5 454.5,-152.5 454.5,-179.5 454.5,-179.5 454.5,-185.5 448.5,-191.5 442.5,-191.5"/>
<text text-anchor="middle" x="346.5" y="-162.3" font-family="Helvetica,sans-Serif" font-size="14.00">ZFS datasets</text>
</g>
<!-- vdev -->
<g id="node6" class="node">
<title>vdev</title>
<polygon fill="none" stroke="white" points="461,-75.5 232,-75.5 232,-16.5 461,-16.5 461,-75.5"/>
<path fill="lightgrey" stroke="transparent" d="M251.5,-23C251.5,-23 331.5,-23 331.5,-23 337.5,-23 343.5,-29 343.5,-35 343.5,-35 343.5,-56 343.5,-56 343.5,-62 337.5,-68 331.5,-68 331.5,-68 251.5,-68 251.5,-68 245.5,-68 239.5,-62 239.5,-56 239.5,-56 239.5,-35 239.5,-35 239.5,-29 245.5,-23 251.5,-23"/>
<path fill="none" stroke="black" d="M251.5,-23C251.5,-23 331.5,-23 331.5,-23 337.5,-23 343.5,-29 343.5,-35 343.5,-35 343.5,-56 343.5,-56 343.5,-62 337.5,-68 331.5,-68 331.5,-68 251.5,-68 251.5,-68 245.5,-68 239.5,-62 239.5,-56 239.5,-56 239.5,-35 239.5,-35 239.5,-29 245.5,-23 251.5,-23"/>
<text text-anchor="start" x="277" y="-41.8" font-family="Helvetica,sans-Serif" font-size="14.00">vdev</text>
<path fill="lightgrey" stroke="transparent" d="M362.5,-23C362.5,-23 442.5,-23 442.5,-23 448.5,-23 454.5,-29 454.5,-35 454.5,-35 454.5,-56 454.5,-56 454.5,-62 448.5,-68 442.5,-68 442.5,-68 362.5,-68 362.5,-68 356.5,-68 350.5,-62 350.5,-56 350.5,-56 350.5,-35 350.5,-35 350.5,-29 356.5,-23 362.5,-23"/>
<path fill="none" stroke="black" d="M362.5,-23C362.5,-23 442.5,-23 442.5,-23 448.5,-23 454.5,-29 454.5,-35 454.5,-35 454.5,-56 454.5,-56 454.5,-62 448.5,-68 442.5,-68 442.5,-68 362.5,-68 362.5,-68 356.5,-68 350.5,-62 350.5,-56 350.5,-56 350.5,-35 350.5,-35 350.5,-29 356.5,-23 362.5,-23"/>
<text text-anchor="start" x="388" y="-41.8" font-family="Helvetica,sans-Serif" font-size="14.00">vdev</text>
</g>
</g>
</svg>
