<?xml version="1.0" encoding="UTF-8" standalone="no"?>
<!DOCTYPE svg PUBLIC "-//W3C//DTD SVG 1.1//EN"
 "http://www.w3.org/Graphics/SVG/1.1/DTD/svg11.dtd">
<!-- Generated by graphviz version 2.43.0 (0)
digraph "ZFS layout" {
  rankdir=LR
  nodesep=0.1

  subgraph cluster_0 {
    style="rounded"
    color="#ffffff"

    node [margin="0,0.25";width=5;style="filled,rounded",shape="box",fontname="helvetica"]
    dataset [label="ZFS dataset (volumes / file system)", fillcolor="azure"]
    pool [label="ZFS pool", fillcolor="lightblue"]
    vdev [label="vdev", fillcolor="lightgrey"]
  }
}
 -->
<!-- Title: ZFS layout Pages: 1 -->
<svg width="400pt" height="208pt"
 viewBox="0.00 0.00 400.00 208.00" xmlns="http://www.w3.org/2000/svg" xmlns:xlink="http://www.w3.org/1999/xlink">
<g id="graph0" class="graph" transform="scale(1 1) rotate(0) translate(4 204)">
<title>ZFS layout</title>
<polygon fill="white" stroke="transparent" points="-4,4 -4,-204 396,-204 396,4 -4,4"/>
<g id="clust1" class="cluster">
<title>cluster_0</title>
<path fill="none" stroke="#ffffff" d="M20,-8C20,-8 372,-8 372,-8 378,-8 384,-14 384,-20 384,-20 384,-180 384,-180 384,-186 378,-192 372,-192 372,-192 20,-192 20,-192 14,-192 8,-186 8,-180 8,-180 8,-20 8,-20 8,-14 14,-8 20,-8"/>
</g>
<!-- dataset -->
<g id="node1" class="node">
<title>dataset</title>
<path fill="azure" stroke="black" d="M364,-183.5C364,-183.5 28,-183.5 28,-183.5 22,-183.5 16,-177.5 16,-171.5 16,-171.5 16,-144.5 16,-144.5 16,-138.5 22,-132.5 28,-132.5 28,-132.5 364,-132.5 364,-132.5 370,-132.5 376,-138.5 376,-144.5 376,-144.5 376,-171.5 376,-171.5 376,-177.5 370,-183.5 364,-183.5"/>
<text text-anchor="middle" x="196" y="-154.3" font-family="Helvetica,sans-Serif" font-size="14.00">ZFS dataset (volumes / file system)</text>
</g>
<!-- pool -->
<g id="node2" class="node">
<title>pool</title>
<path fill="lightblue" stroke="black" d="M364,-125.5C364,-125.5 28,-125.5 28,-125.5 22,-125.5 16,-119.5 16,-113.5 16,-113.5 16,-86.5 16,-86.5 16,-80.5 22,-74.5 28,-74.5 28,-74.5 364,-74.5 364,-74.5 370,-74.5 376,-80.5 376,-86.5 376,-86.5 376,-113.5 376,-113.5 376,-119.5 370,-125.5 364,-125.5"/>
<text text-anchor="middle" x="196" y="-96.3" font-family="Helvetica,sans-Serif" font-size="14.00">ZFS pool</text>
</g>
<!-- vdev -->
<g id="node3" class="node">
<title>vdev</title>
<path fill="lightgrey" stroke="black" d="M364,-67.5C364,-67.5 28,-67.5 28,-67.5 22,-67.5 16,-61.5 16,-55.5 16,-55.5 16,-28.5 16,-28.5 16,-22.5 22,-16.5 28,-16.5 28,-16.5 364,-16.5 364,-16.5 370,-16.5 376,-22.5 376,-28.5 376,-28.5 376,-55.5 376,-55.5 376,-61.5 370,-67.5 364,-67.5"/>
<text text-anchor="middle" x="196" y="-38.3" font-family="Helvetica,sans-Serif" font-size="14.00">vdev</text>
</g>
</g>
</svg>
